# xmcd
#
# Track frame offsets:
#	150
#	8792
#	31510
#	49650
#	71192
#	85327
#	95285
#	122477
#	127360
#	138067
#	158402
#	162735
#	173380
#	182587
#	198372
#	215282
#
# Disc length: 3178 seconds
#
# Revision: 1
# Processed by: cddbd v1.4PL0 Copyright (c) Steve Scherf et al.
# Submitted via: audiograbber 1.80.04
#
DISCID=ca0c6810
DTITLE=James Brown - James Brown Live
DYEAR=1995
DGENRE=Funk
TTITLE0=Give It Up, Turn It Loose
TTITLE1=Too Funky In Here
TTITLE2=Gonna Have A Funky Good Time
TTITLE3=Try Me
TTITLE4=Get On The Good Foot
TTITLE5=Get Up Offa That Thing
TTITLE6=Georgia On My Mind
TTITLE7=Hot Pants
TTITLE8=I Got The Feeling
TTITLE9=It's A Man's Man's Man's World
TTITLE10=Cold Sweat
TTITLE11=I Can't Stand It
TTITLE12=Papa's Got A Brand New Bag
TTITLE13=I Feel Good
TTITLE14=Please, Please, Please
TTITLE15=Jam
EXTD=
EXTT0=
EXTT1=
EXTT2=
EXTT3=
EXTT4=
EXTT5=
EXTT6=
EXTT7=
EXTT8=
EXTT9=
EXTT10=
EXTT11=
EXTT12=
EXTT13=
EXTT14=
EXTT15=
PLAYORDER=
